<svg xmlns="http://www.w3.org/2000/svg" viewBox="0 0 76.9 7.9">
  <style>
    .st0{ fill: #FFF; }
  </style>
  <path class="st0" d="M2.9 5.8v1.6c0 .4-.2.5-.5.5H.5c-.3 0-.5-.2-.5-.5v-5c0-.4.2-.6.5-.6h1.8c.4 0 .5.2.5.5V4H2V2.5H.9v4.7H2V5.8h.9z"/>
  <path class="st0" d="M8.5 7.2v.7H7.2V2.5h-.6c-.1 0-.2 0-.2.2v5.2h-.9V2.7c0-.1 0-.2-.2-.2h-.6v5.4H3.4v-.7h.4V2.3c0-.3.2-.5.5-.5h1c.4 0 .5.2.6.5H6c.1-.3.2-.5.6-.5h1c.4 0 .5.2.5.5v4.9h.4z"/>
  <path class="st0" d="M11.9 2.3v5c0 .4-.2.5-.5.5H9.5c-.3.1-.5-.1-.5-.4v-5c0-.4.2-.6.5-.6h1.8c.4 0 .6.2.6.5zm-.9.2H9.9v4.7H11V2.5z"/>
  <path class="st0" d="M16.3 7.2v.7h-1.2l-.7-5.4h-.2l-.7 5.4h-1.2v-.7h.4l.7-5.4h1.8l.7 5.4h.4z"/>
  <path class="st0" d="M18.5 2.9v-.4h-.7v2h1.3v.7h-1.3v2h.7v-.4h.9v1.1h-2.9v-.7h.4V2.5h-.4v-.7h2.9v1.1h-.9z"/>
  <path class="st0" d="M23.4 2.5v4.7h.4v.7h-1.3V5.2h-1.1v2.7h-1.3v-.7h.4V2.5h-.4v-.7h1.3v2.7h1.1V1.8h1.3v.7h-.4z"/>
  <path class="st0" d="M27.4 5.8v1.6c0 .4-.2.5-.5.5H25c-.4 0-.5-.2-.5-.5v-5c0-.4.2-.5.5-.5h1.8c.4 0 .5.2.5.5V4h-.9V2.5h-1.1v4.7h1.1V5.8h1z"/>
  <path class="st0" d="M30.8 4.8c.4.2.5.3.5.7v1.7h.4v.7h-1.3V5.4c0-.1 0-.2-.2-.2h-.9v2.7H28v-.7h.4V2.5H28v-.7h1.3v2.7h.9c.1 0 .2 0 .2-.2V1.8h1.3v.7h-.4v1.7c0 .4-.2.5-.5.6z"/>
  <path class="st0" d="M35.8 2.5v4.7h.4v.7h-1.3V3l-1.3 1.8v3.1h-1.3v-.7h.4V2.5h-.4v-.7h1.3v1.8l1.3-1.8h1.3v.7h-.4z"/>
  <path class="st0" d="M40.3 2.5v4.7h.4v.7h-1.3V3l-1.3 1.8v3.1h-1.3v-.7h.4V2.5h-.4v-.7h1.3v1.8l1.3-1.8h1.3v.7h-.4zm-2.4-1.4V0h.7v.9h.4V0h.7v1.1c0 .2-.1.4-.4.4h-1.1c-.2-.1-.3-.2-.3-.4z"/>
  <path class="st0" d="M46.1 5v2.3c0 .4-.2.5-.5.5h-2.7v-.6h.4V2.5h-.4v-.7H46v1.1h-.9v-.4h-1v2h1.4c.4 0 .6.2.6.5zm-.9.2h-1.1v2h1.1v-2z"/>
  <path class="st0" d="M50.4 1.8v.7H50l-1 5.4h-.9l.3-1.4h-.8l-.7-4h-.4v-.7h1.1l.7 4h.2l.7-4h1.2z"/>
  <path class="st0" d="M54.2 7.2v.7H53l-.7-5.4h-.2l-.7 5.4h-1.2v-.7h.4l.7-5.4h1.8l.7 5.4h.4z"/>
  <path class="st0" d="M57.7 5v2.3c0 .4-.2.5-.5.5h-2.7v-.6h.4V2.5h-.4v-.7h1.6v.7h-.4v2h1.4c.4 0 .6.2.6.5zm-.9.2h-1.1v2h1.1v-2z"/>
  <path class="st0" d="M61.6 2.3v1.9c0 .4-.2.5-.5.6v.1c.4.1.5.2.5.6v1.9c0 .4-.2.5-.5.5h-2.7v-.7h.4V2.5h-.4v-.7h2.7c.4 0 .5.2.5.5zm-.9.2h-1.1v2h.9c.1 0 .2 0 .2-.2V2.5zm0 2.9c0-.1 0-.2-.2-.2h-.9v2h1.1V5.4z"/>
  <path class="st0" d="M65.8 7.2v.7h-1.3V6.5h-1.1v1.4h-1.3v-.7h.4V2.3c0-.4.2-.5.5-.5h1.8c.4 0 .5.2.5.5v4.9h.5zm-1.3-4.7h-1.1v3.2h1.1V2.5z"/>
  <path class="st0" d="M69.6 2.3v3.6c0 .4-.2.5-.5.5h-1.4v.7h.4v.7h-1.6v-.6h.4V2.5h-.4v-.7H69c.4 0 .6.2.6.5zm-.9.2h-1.1v3.2h1.1V2.5z"/>
  <path class="st0" d="M73.5 7.2v.7h-1.6v-.7h.4V2.5h-.5v-.7h1.4v5.4h.3z"/>
  <path class="st0" d="M76.9 4.8v2.6c0 .4-.2.5-.5.5h-1.8c-.4 0-.5-.2-.5-.5V5.9h.9v1.3h1V5h-2V1.8h2.8v1.1H76v-.4h-1v1.7h1.4c.4 0 .5.2.5.6z"/>
</svg>
