<svg xmlns="http://www.w3.org/2000/svg" viewBox="0 0 60 60.3">
  <path fill="#FFFFFF" d="M12.1 0h.7c.3.1.4.3.4.6V14.4c0 .3.2.5.5.5.5 0 .9 0 1.4-.1.3 0 .4-.2.5-.5 0-.2.1-.3.1-.5v-2V.6c0-.4 0-.6.5-.7h32.1c.8 0 1.6.1 2.4.3 2.5.6 4.6 1.9 6.3 3.9 1.3 1.6 2.2 3.3 2.6 5.4.2 1.1.2 2.2.2 3.3v6.4c0 .3-.1.4-.4.4h-18c-.4 0-.7-.1-1-.4-.8-.7-1.6-1.4-2.6-2-3.3-2-6.9-2.7-10.6-2-3 .5-5.5 1.9-7.7 3.9-.3.3-.6.4-1 .4H.6c-.4 0-.5-.1-.5-.5v-1.6c0-2.3-.1-4.5.1-6.8.1-1.4.4-2.7 1-3.9C2 4.9 3.3 3.5 5 2.2h.1V14.5c0 .3.2.5.5.5.4 0 .9 0 1.3-.1.3 0 .4-.2.5-.5v-.6V1.7v-.3c-.1-.4 0-.5.3-.7.4-.2.7-.3 1.1-.3.3 0 .4.1.3.3V14.3c0 .3.1.5.5.5h1.3c.4 0 .6-.2.6-.6v-.7-6.4V.7c.1-.5.1-.6.6-.7zm32.1 10.1v3.3c0 1.1.8 1.8 1.9 1.8h6.3c1.1 0 1.9-.8 1.9-1.9V6.8c0-1.1-.8-1.9-1.9-1.9H46c-1.1 0-1.8.7-1.9 1.8.1 1.2.1 2.3.1 3.4z"/>
  <path fill="#FFFFFF" fill-rule="evenodd" clip-rule="evenodd" d="M17.4 21.4c-2.3 3.5-3.3 7.2-2.6 11.3.6 3.6 2.2 6.6 5 9 5.5 4.8 13.4 5.1 19.2.7 3.3-2.5 5.3-5.8 5.9-9.8.6-4.1-.3-7.8-2.6-11.2h17c.3 0 .4.2.4.4v26.5c0 3-1.1 5.5-3.1 7.7-1.8 1.9-3.9 3.1-6.5 3.6-.6.1-1.3.2-2 .2H11.7c-5.5 0-10-3.7-11.3-8.9-.3-.8-.4-1.9-.4-3V31v-8.7-.4c0-.4.2-.5.6-.5h16.8z"/>
  <path fill="#FFFFFF" fill-rule="evenodd" clip-rule="evenodd" d="M29.9 18.5c6.5 0 11.8 5.3 11.8 11.8 0 6.5-5.3 11.7-11.8 11.7-6.5 0-11.8-5.3-11.8-11.8 0-6.4 5.3-11.7 11.8-11.7zm8.7 11.9c0-4.8-3.7-8.9-8.8-8.8-4.8.1-8.7 4.1-8.5 8.8.1 4.8 4 8.7 8.9 8.5 4.6-.1 8.4-4 8.4-8.5z"/>
</svg>
