<svg xmlns="http://www.w3.org/2000/svg" viewBox="0 0 46.6 7.9">
  <style>
    .st0{ fill: #FFF; }
  </style>
  <path class="st0" d="M2.9 5.2h-1v1.1H1V5.2H0v-.7h1V3.4h.9v1.1h1v.7z"/>
  <path class="st0" d="M6.5 1.8L4.9 7.9H4l1.4-5.4H4.3v.4h-.9V1.8h3.1z"/>
  <path class="st0" d="M11.3 2.4v5c0 .4-.2.5-.5.5H9c-.4 0-.5-.2-.5-.5V6h.9v1.3h1.1v-2H9c-.4 0-.5-.2-.5-.5V2.4c0-.4.1-.6.5-.6h1.8c.4 0 .5.2.5.6zm-.9.1h-1v2h1.1v-2z"/>
  <path class="st0" d="M14 3.8V2.5h-1v2h1.4c.4 0 .5.2.5.5v2.3c0 .4-.2.5-.5.5h-1.8c-.4 0-.5-.2-.5-.5v-5c0-.4.2-.5.5-.5h1.8c.4 0 .5.2.5.5v1.4H14zm-1 1.4v2h1v-2h-1z"/>
  <path class="st0" d="M18.5 1.8v6.1h-.9V6.5h-2.2l.7-4.7h.9l-.6 4h1.2v-4h.9z"/>
  <path class="st0" d="M22.7 3.8V2.5h-1.1v2H23c.4 0 .5.2.5.5v2.3c0 .4-.2.5-.5.5h-1.8c-.4 0-.5-.2-.5-.5v-5c0-.4.2-.5.5-.5H23c.4 0 .5.2.5.5v1.4h-.8zm-1.1 1.4v2h1.1v-2h-1.1z"/>
  <path class="st0" d="M27.2 1.8v6.1h-.9V6.5h-2.2l.7-4.7h.9l-.6 4h1.2v-4h.9z"/>
  <path class="st0" d="M30.8 1.8l-1.6 6.1h-.9l1.4-5.4h-1.1v.4h-.9V1.8h3.1z"/>
  <path class="st0" d="M35.6 2.4v5c0 .4-.2.5-.5.5h-1.8c-.4 0-.5-.2-.5-.5v-5c0-.4.2-.5.5-.5h1.8c.4-.1.5.1.5.5zm-.9.1h-1.1v4.7h1.1V2.5z"/>
  <path class="st0" d="M38.2 7.2v.7h-1.6v-.7h.4V2.5h-.5v-.7h1.4v5.4h.3z"/>
  <path class="st0" d="M43 2.4v5c0 .4-.2.5-.5.5h-1.8c-.4 0-.5-.2-.5-.5v-5c0-.4.2-.5.5-.5h1.8c.3-.1.5.1.5.5zm-.9.1H41v4.7h1.1V2.5z"/>
  <path class="st0" d="M46.6 1.8L45 7.9h-.9l1.4-5.4h-1.1v.4h-.9V1.8h3.1z"/>
</svg>
