<svg xmlns="http://www.w3.org/2000/svg" viewBox="0 0 124.8 10.2">
  <style>
    .st0{ fill: #FFF; }
  </style>
  <path class="st0" d="M7.4 8.5c0 .1-.1.2-.4.2H5.9c-.2 0-.4-.1-.6-.3l-1.8-2H1.4v2c0 .2-.1.3-.3.3H.3c-.2-.1-.3-.2-.3-.4V.5C0 .3.1.2.3.2h3.4c2.1.1 3.6.7 3.6 3 0 1.5-.8 2.4-2 2.8l2 2.2c.1.2.1.2.1.3zM2.5 10h-.9c-.2 0-.3-.1-.4-.3L.5 9h.8c.1 0 .3-.1.4-.2l1.1 1.1c-.1 0-.2.1-.3.1zm-1-5.2h2.1c1.5 0 2.3-.4 2.3-1.5s-.8-1.6-2.1-1.6H1.5v3.1zm.3 3.8l1 1v.2l-1-1v-.2zm1.9-6.5c1.1 0 1.7.3 1.8 1H2.8l-1-1h1.9zm-1.8.2l1 1v.2l-1-1v-.2zm0 .4l1 1v.2l-1-.9v-.3zm0 .4l1 1v.2l-1-1v-.2zm0 .4l1 1v.1h-.2l-.8-.9v-.2zm0 .4l.6.6h-.2l-.4-.4v-.2zm0 .4l.2.2h-.2v-.2zm0 2.4l1 .9v.2l-1-1v-.1zm0 .3l1 1v.2l-1-1V7zm0 .4l1 1v.2l-1-1v-.2zm0 .4l1 1V9l-1-1v-.2zm0 .4l1 1v.2l-1-1v-.2zm1.5-1.5l.9 1L3 7.6l-.9-.9h1.3zm3.5.6l-.9-1c.2-.1.4-.3.6-.4L7.7 7c-.2.1-.5.2-.8.3zM7 9c.4 0 .7-.1.8-.3l.9 1 .1.1c0 .1-.1.2-.4.2H7.2c-.2-.1-.4-.2-.5-.4L6.1 9H7zm-.2-3.3l1.1 1.1h-.1l-1.1-1 .1-.1zm.2-.2l1.1 1.1H8l-1.1-1 .1-.1zm.2-.2l1.1 1.1h-.1l-1.1-1 .1-.1zm.1-.3l1.1 1-.1.2-1-1.1V5zm.2-.3l1 1v.2l-1-1v-.2zm.1-.3l1 1v.1l-1-1v-.1zm.3-1.9c.2.2.3.3.4.5l-.7-.7v-.2l.3.4zm-.2 1.6l1 1v.2l-1-1v-.2zm.8-.7c0 .1.1.2.1.3l-.9-.9v-.2l.8.8zm-.8.4l1 1V5l-1-1v-.2zm.9.1v.2l-.9-.9V3l.9.9zm-.9-.5l.9 1v.2l-1-1 .1-.2z"/>
  <path class="st0" d="M11.3 1.7v2h4.1c.2 0 .3.1.3.3v.9c0 .2-.1.3-.3.3h-4.1v1.9H16c.2 0 .3.1.3.3v.9c0 .2-.1.3-.3.3h-6c-.2 0-.3-.1-.3-.3V.5c0-.2.1-.3.3-.3h6c.2 0 .3.1.3.3v.9c0 .2-.1.3-.3.3h-4.7zm6.1 8.3h-6c-.1 0-.2 0-.2-.1l-.9-.9H16c.2 0 .3-.1.4-.2l1.1 1c0 .1-.1.2-.1.2zm0-6.9h-4.8l-1-1H16c.2 0 .4-.1.5-.3l1.1 1c0 .2-.1.3-.2.3zm-5.8-.7l1 1h-.2l-.8-.8v-.2zm0 .4l.6.6H12l-.4-.4v-.2zm0 .4l.2.2h-.2v-.2zm5.1 3.3h-4.1l-1-1h3.7c.2 0 .4-.1.5-.2l1.1 1.1c-.1.1-.1.1-.2.1zm-4.2.3h-.2l-.7-.7v-.2l.9.9zm-.9-.5l.5.5h-.2l-.3-.3v-.2zm.1.5zM16 5.1l1 1v.2l-1-1c-.1-.1 0-.1 0-.2zm0-.7l1 1v.2l-1-1v-.2zm0 .5v-.1l1 1V6l-1-1.1zm.7 3.7l1 1v.2l-1-1c-.1-.1-.1-.2 0-.2zm0-7.1l1 1v.2l-1-1v-.2zm0 6.8v-.1l1 1v.2l-1-1.1c0 .1 0 .1 0 0zm0-7.5l.9.9c.1.1.1.1.1.2l-1-1V.8zm0 .3l1 1v.2l-1-1v-.2zm0 6.7l1 1V9l-1-1v-.2z"/>
  <path class="st0" d="M26.7 8.5c0 .1-.1.2-.2.2h-1.1c-.2 0-.3-.1-.4-.3l-.6-1.2h-3.7l-.6 1.2c-.1.2-.3.3-.4.3h-1.1c-.1 0-.2-.1-.2-.2v-.1L22 .8c.2-.4.3-.5.4-.5.1 0 .2.1.4.5l3.6 7.6c.3 0 .3 0 .3.1zm-6.9.5c.1 0 .3 0 .4-.1l1.1 1.1H20c-.1 0-.1 0-.2-.1L19 9h.8zm.6-.3l1.1 1.1-.1.1-1.1-1.1.1-.1zm.1-.2l1.1 1-.1.1-1-1.1c0 .1 0 0 0 0zm.2-.3l1 1.1-.1.1-1.1-1 .2-.2zm.1-.3L21.9 9l-.1.1-1-1.1v-.1zm.1-.3l1.1 1-.1.1-1.1-1 .1-.1zm3.3-.1l.4 1H22l-1-1h3.2zm-.4-1.8l-1.2-2.5-1.2 2.5h2.4zM22 5.2l.2.2H22v-.2zm.1-.3l.4.4h-.2l-.2-.3v-.1zm.2-.2l.5.5-.1.1-.5-.5.1-.1zm.1-.3l.5.5V5l-.5-.5v-.1zm.1-.3l.3.3.2.3-.5-.5v-.1zm2.4-1.5c0 .1.1.3.2.4l-1.2-1.2c-.1-.2-.1-.3-.2-.4l1.2 1.2zm.4.7c.1.1.1.3.2.4l-1.2-1.2c-.1-.1-.1-.3-.2-.4l1.2 1.2zm.4.8l.2.4-1.2-1.2-.2-.4 1.2 1.2zm.4.8c.1.1.1.3.2.4L25 4.1l-.2-.4 1.3 1.2zm.3.7l.2.4-1.2-1.2c-.1-.1-.1-.3-.2-.4l1.2 1.2zm.4.8l.2.4-1.2-1.2c-.1-.1-.1-.3-.2-.4l1.2 1.2zM26.5 9c.2 0 .3 0 .4-.1L28 10h-1.2c-.1 0-.2-.1-.3-.2l-.9-.8h.9zm.7-1.9c.1.1.1.3.2.4l-1.2-1.2c-.1-.1-.2-.2-.2-.3l1.2 1.1zm.3.8l.2.4-1.2-1.2c0-.1-.1-.2-.2-.4l1.2 1.2zm.4.8c0 .1.1.2.2.3l-1.2-1.2-.2-.4 1.2 1.3zm-.9-.1l1.3 1.3-.1.1L27 8.7v-.1zm1.2.8c0 .1.1.2.1.3v.1L27 8.5c0-.1 0-.2-.1-.3l1.3 1.2z"/>
  <path class="st0" d="M29 8.3V.5c0-.2.1-.3.3-.3h.9c.2 0 .3.1.3.3v6.6h4.2c.2 0 .3.1.3.3v.9c0 .2-.1.3-.3.3h-5.4c-.2 0-.3-.1-.3-.3zm7 1.7h-5.4c-.1 0-.2 0-.2-.1l-.9-.9h5.2c.2 0 .3-.1.5-.2l1.1 1c-.1.1-.2.2-.3.2zM30.9.9l1 1v.2l-1-1V.9zm0 .4l1 1v.2l-1-1v-.2zm0 .4l1 1v.2l-1-1v-.2zm0 .4l1 .9v.2l-1-.9v-.2zm0 .4l1 .9v.2l-1-.9v-.2zm0 .4l1 .9V4l-1-.9v-.2zm0 .4l1 .9v.2l-1-.9v-.2zm0 .4l1 .9v.2l-1-1v-.1zm0 .4l1 .9v.2l-1-1v-.1zm0 .4l1 .9v.2l-1-1v-.1zm0 .4l1 1V6l-1-.9v-.2zm0 .4l1 .9v.2l-1-.9v-.2zm0 .4l1 .9v.2h-.1l-.9-.9v-.2zm0 .4l.7.7h-.2l-.5-.5v-.2zm0 .4l.3.3H31l-.1-.1v-.2zm4.4 2l1 1v.2l-1-1v-.2zm0-.7l1 1V9l-1-1v-.2zm0 .5v-.1l1 1v.2l-1-1.1z"/>
  <path class="st0" d="M46.5 8.6h-.9c-.2 0-.3-.1-.3-.3V1.7h-2.5c-.2 0-.4-.1-.4-.3V.6c0-.2.2-.3.4-.3h6.5c.2 0 .4.1.4.3v.9c0 .2-.2.3-.4.3h-2.5v6.6c0 .1-.1.2-.3.2zM43 2.1h2v1h-1l-1-1zm4.9 7.9H47c-.1 0-.2 0-.2-.1l-.9-.9h.7c.2 0 .4-.1.5-.2l1.1 1.1c-.1 0-.2.1-.3.1zm-.7-1.5l1 1v.2l-1-1c-.1-.1 0-.1 0-.2zm1-5.3v.2l-1-1v-.2l1 1zm-1-.6l1 1v.2l-1-1v-.2zm1 1.4v.2l-1-1V3l1 1zm-1-.6l1 1v.2l-1-1v-.2zm1 1.4V5l-1-1v-.2l1 1zm-1-.6l1 1v.2l-1-1v-.2zm0 .4l1 1v.2l-1-1v-.2zm1 1.3v.2l-1-1V5l1 .9zm-1-.5l1 1v.2l-1-1v-.2zm0 .4l1 1V7l-1-1v-.2zm1 1.3v.2l-1-1v-.1l1 .9zm-1-.5l1 1v.2l-1-1v-.2zm0 .4l1 1v.2l-1-1V7zm0 .4l1 1v.2l-1-1v-.2zm0 .3l1 1v.2l-1-1v-.2zm0 .6v-.2l1 1v.2l-1-1zm3.5-5.2h-2.5l-1-1h2.5c.2 0 .3-.1.3-.2l1 .9c-.1.2-.2.3-.3.3zM50 .8l1 1V2l-1-1V.8zm0 .3l1 1v.2l-1-1v-.2zm1 1.4v.2l-1-1v-.2l1 1z"/>
  <path class="st0" d="M53.5 1.7v2h4.1c.2 0 .3.1.3.3v.9c0 .2-.1.3-.3.3h-4.1v1.9h4.8c.2 0 .3.1.3.3v.9c0 .2-.1.3-.3.3h-6c-.2 0-.3-.1-.3-.3V.5c0-.2.1-.3.3-.3h6c.2 0 .3.1.3.3v.9c0 .2-.1.3-.3.3h-4.8zm6.1 8.3h-6c-.1 0-.2 0-.2-.1l-.9-.9h5.8c.2 0 .3-.1.4-.2l1.1 1c-.1.1-.1.2-.2.2zm0-6.9h-4.8l-1-1h4.4c.2 0 .4-.1.5-.3l1.1 1c0 .2-.1.3-.2.3zm-5.8-.7l1 1h-.2l-.8-.8v-.2zm0 .4l.6.6h-.2l-.4-.4v-.2zm0 .4l.2.2h-.2v-.2zm5.1 3.3h-4.1l-1-1h3.7c.2 0 .4-.1.5-.2l1.1 1.1c0 .1-.1.1-.2.1zm-4.2.3h-.2l-.7-.7v-.2l.9.9zm-.9-.5l.5.5h-.2l-.3-.3v-.2zm.1.5zm4.3-1.7l1 1v.2l-1-1c-.1-.1 0-.1 0-.2zm0-.7l1 1v.2l-1-1v-.2zm0 .5v-.1l1 1V6l-1-1.1zm.7 3.7l1 1v.2l-1-1c-.1-.1 0-.2 0-.2zm0-7.1l1 1v.2l-1-1v-.2zm0 6.8v-.1l1 1v.2l-1-1.1c0 .1 0 .1 0 0zm0-7.5l.9.9c.1.1.1.1.1.2l-1-1V.8zm0 .3l1 1v.2l-1-1v-.2zm0 6.7l1 1V9l-1-1v-.2z"/>
  <path class="st0" d="M60.9.2h1.3c.2 0 .4.1.5.3L64.3 3 65.9.6c.1-.2.3-.3.5-.3h1.3c.1 0 .2.1.2.1s0 .1-.1.2l-2.6 3.9 2.6 3.9c0 .1.1.1.1.2s-.1.1-.2.1h-1.3c-.2 0-.4-.1-.5-.3L64.3 6l-1.6 2.4c-.1.2-.3.3-.5.3h-1.3c-.1 0-.2 0-.2-.1 0 0 0-.1.1-.2l2.6-3.9L60.8.6c0-.1-.1-.1-.1-.2s.1-.2.2-.2zm2.6 9.8h-1.3c-.1 0-.2-.1-.3-.2l-.7-.8h1.3c.1 0 .2-.1.3-.2l1 1c-.1.1-.2.2-.3.2zM63 8.6l1 1v.2l-1.1-1.1.1-.1zm.1-.3l1.1 1.1-.1.1L63 8.4l.1-.1zm.2-.2l1.1 1.1-.1.1-1.1-1.1.1-.1zm.2-.2L64.6 9h-.2l-1-1 .1-.1zm.1-.3l1.1 1.1-.1.1-1.1-1.1.1-.1zm.2-.2l1.1 1.1-.1.1-1.1-1.1.1-.1zm.1-.3L65 8.2l-.1.1-1.1-1.1.1-.1zm.2-.2l1 1.1-.1.1L64 7l.1-.1zm.1-.2l.4.4.4.6-.9-.9.1-.1zm1.6-2.4l1.1 1.1-.1.1-1.1-1.1.1-.1zm.1-.2l1.1 1-.1.1-1.1-1.1h.1zm.8 1.5l-.1.1-.3-.3-.3-.5.7.7zm-.6-1.8l1.1 1.1-.1.1L66 3.9l.1-.1zm.2-.2l1.1 1.1-.1.1-1.1-1.1.1-.1zm.1-.3l1.1 1.1-.1.1-1.1-1.1.1-.1zm.2-.2l1.1 1.1-.1.1-1.1-1.1.1-.1zm2.6 6.7c0 .1-.1.1-.2.1h-1.3c-.2 0-.3-.1-.5-.3l-.7-.6h1.2c.2 0 .4-.1.5-.3l.9.9c.1.1.1.2.1.2zm-2.5-6.9L67.8 4h-.1l-1-1v-.1zm.2-.3L68 3.7l-.1.1-1.1-1.1.1-.1zm.1-.2l1.1 1.1-.1.1-1-1.1v-.1zm.2-.3l1.1 1.1-.1.1-1.1-1.1.1-.1zm.2-.2l1 1.1-.1.1-1-1.1.1-.1zm.1-.2l1.1 1.1-.1.1-1.1-1.1.1-.1zm.2-.3l1.1 1.1-.1.1-1.1-1.1.1-.1zm.1-.2l1.1 1.1-.1.1-1.1-1.1c.1 0 .1-.1.1-.1zm.2-.3L69 2v.1L67.9 1l.1-.1zm.1-.2l1.1 1.1v.1L68 .8c.1 0 .1-.1.1-.1z"/>
  <path class="st0" d="M77.8 8.5c0 .1-.1.2-.2.2h-1.1c-.2 0-.3-.1-.4-.3l-.6-1.2h-3.7l-.6 1.2c-.1.2-.3.3-.4.3h-1.1c-.1 0-.2-.1-.2-.2v-.1L73.1.8c.2-.4.3-.5.4-.5s.2.1.4.5l3.6 7.6c.3 0 .3 0 .3.1zm-7 .5c.1 0 .3 0 .4-.1l1.1 1.1H71c-.1 0-.1 0-.2-.1l-.7-.9h.7zm.7-.3l1.1 1.1-.1.1-1.1-1.1s0-.1.1-.1zm.1-.2l1.1 1-.1.1-1-1.1c0 .1 0 0 0 0zm.2-.3l1 1.1-.1.1-1.1-1 .2-.2zm.1-.3l1 1.1-.1.1-1-1.1.1-.1zm.1-.3l1.1 1-.1.2-1.1-1 .1-.2zm3.3-.1l.4 1h-2.6l-1-1h3.2zm-.4-1.8l-1.2-2.5-1.2 2.5h2.4zm-1.8-.5l.2.2h-.2v-.2zm.1-.3l.4.4h-.2l-.2-.3v-.1zm.2-.2l.5.5-.1.1-.5-.5.1-.1zm.1-.3l.5.5-.1.1-.5-.5.1-.1zm.1-.3l.3.3.1.3-.5-.5.1-.1zM76 2.6c0 .1.1.3.2.4L75 1.8c-.1-.2-.1-.3-.2-.4L76 2.6zm.4.7c.1.1.1.3.2.4l-1.2-1.2c-.1-.1-.1-.3-.2-.4l1.2 1.2zm.4.8l.2.4-1.2-1.2-.2-.4 1.2 1.2zm.3.8c.1.1.1.3.2.4l-1.2-1.2-.2-.4 1.2 1.2zm.4.7l.2.4-1.2-1.2c-.1-.1-.1-.3-.2-.4l1.2 1.2zm.4.8l.2.4-1.2-1.2c-.1-.1-.1-.3-.2-.4l1.2 1.2zM77.6 9c.2 0 .3 0 .4-.1l1.1 1.1h-1.2c-.1 0-.2-.1-.3-.2l-.9-.8h.9zm.6-1.9c.1.1.1.3.2.4l-1.2-1.2c0-.1-.1-.2-.2-.3l1.2 1.1zm.4.8l.2.4-1.2-1.2c0-.1-.1-.2-.2-.4l1.2 1.2zm.4.8c0 .1.1.2.1.3l-1.2-1.2-.2-.4L79 8.7zm-.9-.1l1.3 1.3-.1.1-1.2-1.2v-.2zm1.2.8c0 .1.1.2.1.3v.1l-1.3-1.3c0-.1 0-.2-.1-.3l1.3 1.2z"/>
  <path class="st0" d="M79.3 6h.8c.3 0 .5 0 .6.3.4.9 1.3 1 2.6 1 1.2 0 1.9-.1 1.9-.9 0-.6-.9-.9-2.5-1.3-1.3-.4-3.6-1-3.6-2.7C79.1.6 80.5 0 82.9 0c2.1 0 4 .8 4 2.6 0 .2 0 .3-.2.3h-.8c-.3 0-.5 0-.6-.3-.3-.9-1.1-1-2.4-1-1.3 0-2.1.2-2.1.9 0 .6 1.3 1 2.5 1.3 1.5.5 3.6 1.2 3.6 2.8 0 2-1.4 2.4-3.8 2.4s-4-1-4-2.6c0-.3 0-.4.2-.4zm3.3-.5c1.9.6 2.2.8 2.2 1v.2l-.8-.2c-1.8-.6-2.4-.9-3-1.4l-.2-.2c.7.2 1.3.4 1.8.6zm1.9 4.7c-1.4 0-2.4-.2-3.2-.9l-.4-.4c.6.2 1.4.3 2.2.3 2 0 3.2-.4 3.8-1.2l1 1.1c-.5.9-1.7 1.1-3.4 1.1zm-1.6-8.3c1.4 0 1.8.2 2 .8 0 .1.1.1.1.2h-.8c-.7 0-1.3.1-1.7.2-1.2-.4-1.3-.5-1.3-.7 0-.4.5-.5 1.7-.5zm5.4 2c0 .2 0 .3-.2.3h-.8c-.3 0-.5 0-.6-.3-.1-.3-.2-.5-.4-.6h.6c.3 0 .4-.1.5-.3l.9.9zM87 7.8l1 1s0 .1-.1.1l-1-1c.1 0 .1-.1.1-.1zm.1-.3l1 1v.2l-1-1v-.2zm.1-.3l1 1v.2l-1-1v-.2zm.5-.8c.1.2.3.4.4.6l-.8-.8V6l.4.4zm-.4.4l1 1V8l-1-1v-.2zm.7-4c.1.1.1.2.2.4l-.9-.9v-.2l.7.7zm-.7 3.6l.9.9v.2l-.9-.9v-.2zm0-3.8l.9.9v.2l-1-.9c.1-.1.1-.2.1-.2z"/>
  <path class="st0" d="M95.2 8.3V.5c0-.2.1-.3.3-.3h2.9c2.1 0 3.5.2 3.5 2.5 0 .6-.1 1.1-.3 1.4.6.3.9.9.9 2.1 0 2.2-1.5 2.4-3.8 2.4h-3.3s-.2-.1-.2-.3zm7.1-.1l1.1 1.1c-.6.6-1.8.7-3.2.7h-3.4l-1-1h3.1c1.4 0 2.7-.1 3.4-.8zm-4.6-6.5h-1v2h1.6c1.5 0 2.2 0 2.2-1 0-.9-.7-1-2-1h-.8zM99 5.1h-2.2v2.1h2.1c1.5 0 2.3 0 2.3-.9-.1-1.1-.9-1.2-2.2-1.2zm-.8-2l-1-1h2.1c.4 0 .8.2.8.6 0 .2 0 .3-.5.3l-1.4.1zm-.2.3l-.8-.8v-.2l1 1H98zm-.4 0l-.4-.4v-.3l.6.6h-.2zm-.4-.1v-.2l.2.2h-.2zm.8 2.2h1.9c.4 0 .8.2.8.6 0 .2 0 .3-.5.3h-2.1v.2l-1-.9v-.2h.9zm-.8.4l1 .9H98l-.8-.8v-.1zm0 .4l.6.6h-.2l-.4-.4v-.2zm0 .4l.2.2h-.2v-.2zm6-1.7l-1-1v-.1l1 1V5zm.1-.3l-1-1v-.2l1 1v.2zm-1-2.6v-.2l.8.8c.1.1.1.2.1.3l-.9-.9zm.1 1l1 1v.2l-1-1v-.2zm0-.8l.9.9v.3l-.9-.9v-.3zm0 .4l.9.9v.2l-1-.9v-.2h.1zm.1 5.3l1.1 1.1-.1.1-1.1-1.1.1-.1zm.6-2.7l-.4-.4c-.1-.2-.2-.3-.3-.5l.7.7c.1.1 0 .1 0 .2zm-.5 2.4l1.1 1.1s0 .1-.1.1l-1.1-1.1c.1 0 .1 0 .1-.1zm.2-.2l1 1-.1.2-1-1c0-.1.1-.2.1-.2zm.1-.3l1 1v.2l-1-1c-.1-.1 0-.2 0-.2zm.1-1.7c.3.2.5.4.6.7l-.6-.7c-.1-.2-.1-.3-.2-.3l.2.2v.1zm-.1 1.4l1 1v.2l-1-1v-.2zm0-1.2l.9.8.1.3-.9-.9c0-.1-.1-.1-.1-.2zm1 1.8v.1l-1-1v-.2l1 1.1zm-.9-1.4l.9.9v.2l-.9-.9v-.2z"/>
  <path class="st0" d="M105 8.3V.5c0-.2.1-.3.3-.3h2.9c2.1 0 3.5.2 3.5 2.5 0 .6-.1 1.1-.3 1.4.6.3.9.9.9 2.1 0 2.2-1.5 2.4-3.8 2.4h-3.3c-.1 0-.2-.1-.2-.3zm7.1-.1l1.1 1.1c-.6.6-1.8.7-3.2.7h-3.4l-1-1h3.1c1.4 0 2.6-.1 3.4-.8zm-4.6-6.5h-1v2h1.6c1.5 0 2.2 0 2.2-1 0-.9-.7-1-2-1h-.8zm1.2 3.4h-2.2v2.1h2.1c1.5 0 2.3 0 2.3-.9 0-1.1-.8-1.2-2.2-1.2zm-.8-2l-1-1h2.1c.4 0 .8.2.8.6 0 .2 0 .3-.5.3l-1.4.1zm-.1.3l-.8-.8v-.2l1 1h-.2zm-.4 0L107 3v-.3l.6.6h-.2zm-.4-.1v-.2l.2.2h-.2zm.8 2.2h1.9c.4 0 .8.2.8.6 0 .2 0 .3-.5.3h-2.1v.2l-1-.9v-.2h.9zm-.8.4l1 .9h-.2l-.8-.7v-.2zm0 .4l.6.6h-.2l-.4-.4v-.2zm0 .4l.2.2h-.2v-.2zm6-1.7l-1-1v-.1l1 1V5zm.1-.3l-1-1v-.2l1 1v.2zm-1-2.6v-.2l.8.8c.1.1.1.2.1.3l-.9-.9zm0 1l1 1v.2l-1-1v-.2zm0-.8l.9.9v.3l-.9-.9v-.3zm0 .4l.9.9v.2l-1-.9v-.2h.1zm.2 5.3l1.1 1.1-.1.1-1.1-1.1.1-.1zm.6-2.7l-.4-.4c-.1-.2-.2-.3-.3-.5l.7.7v.2zm-.5 2.4l1.1 1.1s0 .1-.1.1l-1.1-1.1c.1 0 .1 0 .1-.1zm.1-.2l1 1-.1.2-1-1c.1-.1.1-.2.1-.2zm.1-.3l1 1v.2l-1-1v-.2zm.2-1.7c.3.2.5.4.6.7l-.6-.7c-.1-.2-.1-.3-.2-.3l.2.2v.1zm-.1 1.4l1 1v.2l-1-1v-.2zm0-1.2l.9.8.1.3-.9-.9c-.1-.1-.1-.1-.1-.2zm1 1.8v.1l-1-1v-.2l1 1.1zm-1-1.4l.9.9v.2l-.9-.9v-.2z"/>
  <path class="st0" d="M123.5 8.4c0 .1-.1.3-.3.3h-1c-.2 0-.4-.1-.6-.3l-.2-.2c-.7.5-1.6.8-2.6.8-2.6 0-4.4-1.8-4.4-4.4 0-2.6 1.8-4.4 4.4-4.4 2.6 0 4.4 1.8 4.4 4.4 0 1-.3 1.9-.8 2.6l1 1c.1 0 .1.1.1.2zM120.3 7L119 5.7s-.1-.1-.1-.2c0-.2.1-.3.5-.3h.9c.2 0 .4.1.6.3l.5.5c.2-.4.3-.9.3-1.5 0-1.7-1.2-2.9-2.9-2.9s-2.9 1.2-2.9 2.9 1.2 2.9 2.9 2.9c.5-.1 1-.2 1.5-.4zm-4-2.8l1 1v.2l-1-1v-.2zm.9 1.3v.2l-.9-.9v-.2l.9.9zm-.9-1.7l1 1V5l-1-1v-.2zm.9 2.1v.2l-.9-.9c0-.1 0-.2-.1-.3l1 1zm-.8-2.4l1 1s0 .1-.1.2l-1-1c.1-.1.1-.1.1-.2zm.1-.3l1.1 1.1-.1.1-1.1-1 .1-.2zm.8 3.2v.2c-.3-.2-.6-.5-.8-.9l.8.7zm-.6-3.4l1.1 1.1s0 .1-.1.1l-1.1-1.1s0-.1.1-.1zm2.1-1.1c.9 0 1.7.4 2.1 1.1-.3-.1-.5-.1-.8-.1-1 0-1.8.4-2.3 1l-1.1-1.1c.5-.5 1.2-.9 2.1-.9zm0 7.3c.9 0 1.8-.2 2.6-.7.3.3.5.4.8.4h1c.4 0 .6-.2.7-.5l.9.9c.1.1.1.2.1.3 0 .1-.1.3-.3.3h-1c-.2 0-.4-.1-.6-.3l-.2-.2c-.7.5-1.6.8-2.6.8-1.2 0-2.3-.4-3-1.1l-.2-.2c.4.2 1.1.3 1.8.3zm4.2-2.3l1 1.1v.1L122.9 7s0-.1.1-.1zm.1-.3l1 1.1s0 .1-.1.1l-1.1-1 .2-.2zm.1-.2l1 1s0 .1-.1.1l-1-1c.1 0 .1-.1.1-.1zm.1-3.8c.2.2.4.5.6.7l-.6-.6c0-.1-.1-.2-.1-.3l.1.2zm0 3.5l1 1v.1l-1-1v-.1zm.1-.3l1 1V7l-1-1v-.2zm.7-2.1c.1.1.1.2.2.4l-.8-.8-.1-.3.7.7zm-.6 1.7l1 1v.2l-1-1v-.2zm.8-1.1l.1.3-.9-.9v-.2l.8.8zm-.8.8l1 1v.2l-1-1v-.2zm1-.3V5l-.9-.9v-.2l.9.9zm-.9-.1l1 1V6l-1-1v-.3zm0-.3l.9.9v.2l-1-1v-.1z"/>
</svg>
